<svg xmlns="http://www.w3.org/2000/svg" width="1200" height="630" viewBox="0 0 1200 630" fill="none">
  <defs>
    <linearGradient id="bg" x1="0" y1="0" x2="1200" y2="630" gradientUnits="userSpaceOnUse">
      <stop offset="0" stop-color="#0c0a09" />
      <stop offset="0.62" stop-color="#1c1917" />
      <stop offset="1" stop-color="#292524" />
    </linearGradient>
    <radialGradient id="glow" cx="0" cy="0" r="1" gradientUnits="userSpaceOnUse" gradientTransform="translate(930 140) rotate(135) scale(460 460)">
      <stop offset="0" stop-color="#22d3ee" stop-opacity="0.24" />
      <stop offset="1" stop-color="#22d3ee" stop-opacity="0" />
    </radialGradient>
  </defs>

  <rect width="1200" height="630" fill="url(#bg)" />
  <rect width="1200" height="630" fill="url(#glow)" />

  <g opacity="0.08" stroke="#a8a29e">
    <path d="M0 130H1200" />
    <path d="M0 250H1200" />
    <path d="M0 370H1200" />
    <path d="M0 490H1200" />
    <path d="M200 0V630" />
    <path d="M400 0V630" />
    <path d="M600 0V630" />
    <path d="M800 0V630" />
    <path d="M1000 0V630" />
  </g>

  <g transform="translate(88 94)">
    <rect x="0" y="0" width="78" height="78" rx="39" fill="#f5f5f4" />
    <path d="M44 10V33H63L35 70V47H16L44 10Z" fill="#1c1917" />
  </g>

  <text x="182" y="146" fill="#e7e5e4" font-size="30" font-family="DM Sans, Inter, Arial, sans-serif" letter-spacing="0.08em">
    PROMPT ATLAS
  </text>

  <text x="88" y="326" fill="#fafaf9" font-size="78" font-weight="700" font-family="DM Sans, Inter, Arial, sans-serif">
    AI Prompting That Works
  </text>
  <text x="88" y="412" fill="#fafaf9" font-size="78" font-weight="700" font-family="DM Sans, Inter, Arial, sans-serif">
    in Production
  </text>
</svg>
